# xmcd
#
# Track frame offsets: 
#        150
#        23744
#        42455
#        64714
#        86652
#        100842
#        124057
#        144485
#        162050
#        183215
#
# Disc length: 2739 seconds
#
# Revision: 0
# Processed by: cddbd v1.5.2PL0 Copyright (c) Steve Scherf et al.
# Submitted via: ExactAudioCopyFreeDBPlugin 1.0
#
DISCID=7c0ab10a
DTITLE=Joanne Shaw Taylor - Diamonds in the Dirt
DYEAR=2010
DGENRE=Blues
TTITLE0=Can't Keep Living Like This
TTITLE1=Dead And Gone
TTITLE2=Same As It Never Was
TTITLE3=Jump That Train
TTITLE4=Who Do You Love?
TTITLE5=Diamonds In The Dirt
TTITLE6=Let It Burn
TTITLE7=World On Fire
TTITLE8=Lord Have Mercy
TTITLE9=The World And It's Way
EXTD=
EXTT0=
EXTT1=
EXTT2=
EXTT3=
EXTT4=
EXTT5=
EXTT6=
EXTT7=
EXTT8=
EXTT9=
PLAYORDER=
